<?xml version="1.0" encoding="UTF-8" standalone="no"?>
<!DOCTYPE svg PUBLIC "-//W3C//DTD SVG 1.1//EN"
 "http://www.w3.org/Graphics/SVG/1.1/DTD/svg11.dtd">
<!-- Generated by graphviz version 2.40.1 (20161225.0304)
 -->
<!-- Title: dependencies Pages: 1 -->
<svg width="3316pt" height="284pt"
 viewBox="0.00 0.00 3316.00 284.00" xmlns="http://www.w3.org/2000/svg" xmlns:xlink="http://www.w3.org/1999/xlink">
<g id="graph0" class="graph" transform="scale(1 1) rotate(0) translate(4 280)">
<title>dependencies</title>
<polygon fill="#ffffff" stroke="transparent" points="-4,4 -4,-280 3312,-280 3312,4 -4,4"/>
<text text-anchor="start" x="1633.0091" y="-42.4" font-family="sans-serif" font-weight="bold" font-size="14.00" fill="#000000">Legend</text>
<polygon fill="#ffffb3" stroke="transparent" points="1420,-10 1420,-30 1440,-30 1440,-10 1420,-10"/>
<text text-anchor="start" x="1443.629" y="-15.4" font-family="sans-serif" font-size="14.00" fill="#000000"> &#160;Declarations</text>
<polygon fill="#8dd3c7" stroke="transparent" points="1533,-10 1533,-30 1553,-30 1553,-10 1533,-10"/>
<text text-anchor="start" x="1556.7251" y="-15.4" font-family="sans-serif" font-size="14.00" fill="#000000"> &#160;Module</text>
<polygon fill="#80b1d3" stroke="transparent" points="1619,-10 1619,-30 1639,-30 1639,-10 1619,-10"/>
<text text-anchor="start" x="1642.7812" y="-15.4" font-family="sans-serif" font-size="14.00" fill="#000000"> &#160;Bootstrap</text>
<polygon fill="#fdb462" stroke="transparent" points="1716,-10 1716,-30 1736,-30 1736,-10 1716,-10"/>
<text text-anchor="start" x="1739.6732" y="-15.4" font-family="sans-serif" font-size="14.00" fill="#000000"> &#160;Providers</text>
<polygon fill="#fb8072" stroke="transparent" points="1812,-10 1812,-30 1832,-30 1832,-10 1812,-10"/>
<text text-anchor="start" x="1835.7258" y="-15.4" font-family="sans-serif" font-size="14.00" fill="#000000"> &#160;Exports</text>
<g id="clust1" class="cluster">
<title>cluster_AppModule</title>
<polygon fill="none" stroke="#000000" stroke-dasharray="1,5" points="8,-70 8,-268 3300,-268 3300,-70 8,-70"/>
</g>
<g id="clust2" class="cluster">
<title>cluster_AppModule_declarations</title>
<polygon fill="none" stroke="#000000" points="1493,-78 1493,-130 3292,-130 3292,-78 1493,-78"/>
</g>
<g id="clust16" class="cluster">
<title>cluster_AppModule_imports</title>
<polygon fill="none" stroke="#000000" points="1240,-78 1240,-130 1485,-130 1485,-78 1240,-78"/>
</g>
<g id="clust18" class="cluster">
<title>cluster_AppModule_bootstrap</title>
<polygon fill="none" stroke="#000000" points="1637,-208 1637,-260 1761,-260 1761,-208 1637,-208"/>
</g>
<g id="clust19" class="cluster">
<title>cluster_AppModule_providers</title>
<polygon fill="none" stroke="#000000" points="16,-78 16,-130 1232,-130 1232,-78 16,-78"/>
</g>
<!-- AppComponent -->
<g id="node1" class="node">
<title>AppComponent</title>
<polygon fill="#ffffb3" stroke="#000000" points="3283.9399,-122 3178.0601,-122 3178.0601,-86 3283.9399,-86 3283.9399,-122"/>
<text text-anchor="middle" x="3231" y="-99.8" font-family="Times,serif" font-size="14.00" fill="#000000">AppComponent</text>
</g>
<!-- AppModule -->
<g id="node14" class="node">
<title>AppModule</title>
<polygon fill="#8dd3c7" stroke="#000000" points="1740.6571,-187 1737.6571,-191 1716.6571,-191 1713.6571,-187 1657.3429,-187 1657.3429,-151 1740.6571,-151 1740.6571,-187"/>
<text text-anchor="middle" x="1699" y="-164.8" font-family="Times,serif" font-size="14.00" fill="#000000">AppModule</text>
</g>
<!-- AppComponent&#45;&gt;AppModule -->
<g id="edge1" class="edge">
<title>AppComponent&#45;&gt;AppModule</title>
<path fill="none" stroke="#000000" d="M3231,-122.1532C3231,-145.7566 3231,-184 3231,-184 3231,-184 1750.7718,-184 1750.7718,-184"/>
<polygon fill="#000000" stroke="#000000" points="1750.7719,-180.5001 1740.7718,-184 1750.7718,-187.5001 1750.7719,-180.5001"/>
</g>
<!-- HeaderComponent -->
<g id="node2" class="node">
<title>HeaderComponent</title>
<polygon fill="#ffffb3" stroke="#000000" points="3159.7437,-122 3038.2563,-122 3038.2563,-86 3159.7437,-86 3159.7437,-122"/>
<text text-anchor="middle" x="3099" y="-99.8" font-family="Times,serif" font-size="14.00" fill="#000000">HeaderComponent</text>
</g>
<!-- HeaderComponent&#45;&gt;AppModule -->
<g id="edge2" class="edge">
<title>HeaderComponent&#45;&gt;AppModule</title>
<path fill="none" stroke="#000000" d="M3099,-122.2479C3099,-145.0179 3099,-181 3099,-181 3099,-181 1750.8992,-181 1750.8992,-181"/>
<polygon fill="#000000" stroke="#000000" points="1750.8993,-177.5001 1740.8992,-181 1750.8992,-184.5001 1750.8993,-177.5001"/>
</g>
<!-- MainComponent -->
<g id="node3" class="node">
<title>MainComponent</title>
<polygon fill="#ffffb3" stroke="#000000" points="3020.3823,-122 2909.6177,-122 2909.6177,-86 3020.3823,-86 3020.3823,-122"/>
<text text-anchor="middle" x="2965" y="-99.8" font-family="Times,serif" font-size="14.00" fill="#000000">MainComponent</text>
</g>
<!-- MainComponent&#45;&gt;AppModule -->
<g id="edge3" class="edge">
<title>MainComponent&#45;&gt;AppModule</title>
<path fill="none" stroke="#000000" d="M2965,-122.2921C2965,-144.2057 2965,-178 2965,-178 2965,-178 1750.7615,-178 1750.7615,-178"/>
<polygon fill="#000000" stroke="#000000" points="1750.7615,-174.5001 1740.7615,-178 1750.7615,-181.5001 1750.7615,-174.5001"/>
</g>
<!-- ContainerComponent -->
<g id="node4" class="node">
<title>ContainerComponent</title>
<polygon fill="#ffffb3" stroke="#000000" points="2891.0408,-122 2754.9592,-122 2754.9592,-86 2891.0408,-86 2891.0408,-122"/>
<text text-anchor="middle" x="2823" y="-99.8" font-family="Times,serif" font-size="14.00" fill="#000000">ContainerComponent</text>
</g>
<!-- ContainerComponent&#45;&gt;AppModule -->
<g id="edge4" class="edge">
<title>ContainerComponent&#45;&gt;AppModule</title>
<path fill="none" stroke="#000000" d="M2823,-122.2843C2823,-143.3211 2823,-175 2823,-175 2823,-175 1750.6731,-175 1750.6731,-175"/>
<polygon fill="#000000" stroke="#000000" points="1750.6732,-171.5001 1740.6731,-175 1750.6731,-178.5001 1750.6732,-171.5001"/>
</g>
<!-- ChatComponent -->
<g id="node5" class="node">
<title>ChatComponent</title>
<polygon fill="#ffffb3" stroke="#000000" points="2736.7744,-122 2629.2256,-122 2629.2256,-86 2736.7744,-86 2736.7744,-122"/>
<text text-anchor="middle" x="2683" y="-99.8" font-family="Times,serif" font-size="14.00" fill="#000000">ChatComponent</text>
</g>
<!-- ChatComponent&#45;&gt;AppModule -->
<g id="edge5" class="edge">
<title>ChatComponent&#45;&gt;AppModule</title>
<path fill="none" stroke="#000000" d="M2683,-122.2228C2683,-142.3652 2683,-172 2683,-172 2683,-172 1750.9665,-172 1750.9665,-172"/>
<polygon fill="#000000" stroke="#000000" points="1750.9665,-168.5001 1740.9665,-172 1750.9664,-175.5001 1750.9665,-168.5001"/>
</g>
<!-- DriveComponent -->
<g id="node6" class="node">
<title>DriveComponent</title>
<polygon fill="#ffffb3" stroke="#000000" points="2611.705,-122 2498.295,-122 2498.295,-86 2611.705,-86 2611.705,-122"/>
<text text-anchor="middle" x="2555" y="-99.8" font-family="Times,serif" font-size="14.00" fill="#000000">DriveComponent</text>
</g>
<!-- DriveComponent&#45;&gt;AppModule -->
<g id="edge6" class="edge">
<title>DriveComponent&#45;&gt;AppModule</title>
<path fill="none" stroke="#000000" d="M2555,-122.1061C2555,-141.3391 2555,-169 2555,-169 2555,-169 1750.8661,-169 1750.8661,-169"/>
<polygon fill="#000000" stroke="#000000" points="1750.8662,-165.5001 1740.8661,-169 1750.8661,-172.5001 1750.8662,-165.5001"/>
</g>
<!-- TodoListComponent -->
<g id="node7" class="node">
<title>TodoListComponent</title>
<polygon fill="#ffffb3" stroke="#000000" points="2480.1638,-122 2347.8362,-122 2347.8362,-86 2480.1638,-86 2480.1638,-122"/>
<text text-anchor="middle" x="2414" y="-99.8" font-family="Times,serif" font-size="14.00" fill="#000000">TodoListComponent</text>
</g>
<!-- TodoListComponent&#45;&gt;AppModule -->
<g id="edge7" class="edge">
<title>TodoListComponent&#45;&gt;AppModule</title>
<path fill="none" stroke="#000000" d="M2414,-122.2667C2414,-140.5552 2414,-166 2414,-166 2414,-166 1750.7942,-166 1750.7942,-166"/>
<polygon fill="#000000" stroke="#000000" points="1750.7942,-162.5001 1740.7942,-166 1750.7941,-169.5001 1750.7942,-162.5001"/>
</g>
<!-- TodoEditComponent -->
<g id="node8" class="node">
<title>TodoEditComponent</title>
<polygon fill="#ffffb3" stroke="#000000" points="2330.219,-122 2195.781,-122 2195.781,-86 2330.219,-86 2330.219,-122"/>
<text text-anchor="middle" x="2263" y="-99.8" font-family="Times,serif" font-size="14.00" fill="#000000">TodoEditComponent</text>
</g>
<!-- TodoEditComponent&#45;&gt;AppModule -->
<g id="edge8" class="edge">
<title>TodoEditComponent&#45;&gt;AppModule</title>
<path fill="none" stroke="#000000" d="M2263,-122.0225C2263,-139.3734 2263,-163 2263,-163 2263,-163 1750.9309,-163 1750.9309,-163"/>
<polygon fill="#000000" stroke="#000000" points="1750.9309,-159.5001 1740.9309,-163 1750.9309,-166.5001 1750.9309,-159.5001"/>
</g>
<!-- ContactsComponent -->
<g id="node9" class="node">
<title>ContactsComponent</title>
<polygon fill="#ffffb3" stroke="#000000" points="2178.3244,-122 2047.6756,-122 2047.6756,-86 2178.3244,-86 2178.3244,-122"/>
<text text-anchor="middle" x="2113" y="-99.8" font-family="Times,serif" font-size="14.00" fill="#000000">ContactsComponent</text>
</g>
<!-- ContactsComponent&#45;&gt;AppModule -->
<g id="edge9" class="edge">
<title>ContactsComponent&#45;&gt;AppModule</title>
<path fill="none" stroke="#000000" d="M2113,-122.027C2113,-138.3976 2113,-160 2113,-160 2113,-160 1750.9748,-160 1750.9748,-160"/>
<polygon fill="#000000" stroke="#000000" points="1750.9749,-156.5001 1740.9748,-160 1750.9748,-163.5001 1750.9749,-156.5001"/>
</g>
<!-- FooterComponent -->
<g id="node10" class="node">
<title>FooterComponent</title>
<polygon fill="#ffffb3" stroke="#000000" points="2029.8809,-122 1912.1191,-122 1912.1191,-86 2029.8809,-86 2029.8809,-122"/>
<text text-anchor="middle" x="1971" y="-99.8" font-family="Times,serif" font-size="14.00" fill="#000000">FooterComponent</text>
</g>
<!-- FooterComponent&#45;&gt;AppModule -->
<g id="edge10" class="edge">
<title>FooterComponent&#45;&gt;AppModule</title>
<path fill="none" stroke="#000000" d="M1971,-122.2396C1971,-137.5706 1971,-157 1971,-157 1971,-157 1750.9039,-157 1750.9039,-157"/>
<polygon fill="#000000" stroke="#000000" points="1750.9039,-153.5001 1740.9039,-157 1750.9039,-160.5001 1750.9039,-153.5001"/>
</g>
<!-- ProfileComponent -->
<g id="node11" class="node">
<title>ProfileComponent</title>
<polygon fill="#ffffb3" stroke="#000000" points="1893.9328,-122 1774.0672,-122 1774.0672,-86 1893.9328,-86 1893.9328,-122"/>
<text text-anchor="middle" x="1834" y="-99.8" font-family="Times,serif" font-size="14.00" fill="#000000">ProfileComponent</text>
</g>
<!-- ProfileComponent&#45;&gt;AppModule -->
<g id="edge11" class="edge">
<title>ProfileComponent&#45;&gt;AppModule</title>
<path fill="none" stroke="#000000" d="M1834,-122.0511C1834,-136.373 1834,-154 1834,-154 1834,-154 1750.9748,-154 1750.9748,-154"/>
<polygon fill="#000000" stroke="#000000" points="1750.9749,-150.5001 1740.9748,-154 1750.9748,-157.5001 1750.9749,-150.5001"/>
</g>
<!-- LoginComponent -->
<g id="node12" class="node">
<title>LoginComponent</title>
<polygon fill="#ffffb3" stroke="#000000" points="1756.2758,-122 1641.7242,-122 1641.7242,-86 1756.2758,-86 1756.2758,-122"/>
<text text-anchor="middle" x="1699" y="-99.8" font-family="Times,serif" font-size="14.00" fill="#000000">LoginComponent</text>
</g>
<!-- LoginComponent&#45;&gt;AppModule -->
<g id="edge12" class="edge">
<title>LoginComponent&#45;&gt;AppModule</title>
<path fill="none" stroke="#000000" d="M1699,-122.1061C1699,-122.1061 1699,-140.991 1699,-140.991"/>
<polygon fill="#000000" stroke="#000000" points="1695.5001,-140.9909 1699,-150.991 1702.5001,-140.991 1695.5001,-140.9909"/>
</g>
<!-- GroupsComponent -->
<g id="node13" class="node">
<title>GroupsComponent</title>
<polygon fill="#ffffb3" stroke="#000000" points="1623.045,-122 1500.955,-122 1500.955,-86 1623.045,-86 1623.045,-122"/>
<text text-anchor="middle" x="1562" y="-99.8" font-family="Times,serif" font-size="14.00" fill="#000000">GroupsComponent</text>
</g>
<!-- GroupsComponent&#45;&gt;AppModule -->
<g id="edge13" class="edge">
<title>GroupsComponent&#45;&gt;AppModule</title>
<path fill="none" stroke="#000000" d="M1562,-122.0511C1562,-136.373 1562,-154 1562,-154 1562,-154 1647.1511,-154 1647.1511,-154"/>
<polygon fill="#000000" stroke="#000000" points="1647.1511,-157.5001 1657.1511,-154 1647.151,-150.5001 1647.1511,-157.5001"/>
</g>
<!-- AppComponent  -->
<g id="node17" class="node">
<title>AppComponent </title>
<polygon fill="#80b1d3" stroke="#000000" points="1753.439,-252 1644.561,-252 1644.561,-216 1753.439,-216 1753.439,-252"/>
<text text-anchor="middle" x="1699" y="-229.8" font-family="Times,serif" font-size="14.00" fill="#000000">AppComponent </text>
</g>
<!-- AppModule&#45;&gt;AppComponent  -->
<g id="edge16" class="edge">
<title>AppModule&#45;&gt;AppComponent </title>
<path fill="none" stroke="#000000" stroke-dasharray="1,5" d="M1699,-187.1061C1699,-187.1061 1699,-205.991 1699,-205.991"/>
<polygon fill="#000000" stroke="#000000" points="1695.5001,-205.9909 1699,-215.991 1702.5001,-205.991 1695.5001,-205.9909"/>
</g>
<!-- MaterialModule -->
<g id="node15" class="node">
<title>MaterialModule</title>
<polygon fill="#8dd3c7" stroke="#000000" points="1477.4706,-122 1474.4706,-126 1453.4706,-126 1450.4706,-122 1370.5294,-122 1370.5294,-86 1477.4706,-86 1477.4706,-122"/>
<text text-anchor="middle" x="1424" y="-99.8" font-family="Times,serif" font-size="14.00" fill="#000000">MaterialModule</text>
</g>
<!-- MaterialModule&#45;&gt;AppModule -->
<g id="edge14" class="edge">
<title>MaterialModule&#45;&gt;AppModule</title>
<path fill="none" stroke="#000000" d="M1424,-122.2396C1424,-137.5706 1424,-157 1424,-157 1424,-157 1647.2334,-157 1647.2334,-157"/>
<polygon fill="#000000" stroke="#000000" points="1647.2335,-160.5001 1657.2334,-157 1647.2334,-153.5001 1647.2335,-160.5001"/>
</g>
<!-- RoutingModule -->
<g id="node16" class="node">
<title>RoutingModule</title>
<polygon fill="#8dd3c7" stroke="#000000" points="1352.1681,-122 1349.1681,-126 1328.1681,-126 1325.1681,-122 1247.8319,-122 1247.8319,-86 1352.1681,-86 1352.1681,-122"/>
<text text-anchor="middle" x="1300" y="-99.8" font-family="Times,serif" font-size="14.00" fill="#000000">RoutingModule</text>
</g>
<!-- RoutingModule&#45;&gt;AppModule -->
<g id="edge15" class="edge">
<title>RoutingModule&#45;&gt;AppModule</title>
<path fill="none" stroke="#000000" d="M1300,-122.027C1300,-138.3976 1300,-160 1300,-160 1300,-160 1647.0541,-160 1647.0541,-160"/>
<polygon fill="#000000" stroke="#000000" points="1647.0542,-163.5001 1657.0541,-160 1647.0541,-156.5001 1647.0542,-163.5001"/>
</g>
<!-- AuthGuard -->
<g id="node18" class="node">
<title>AuthGuard</title>
<ellipse fill="#fdb462" stroke="#000000" cx="1170" cy="-104" rx="54.4566" ry="18"/>
<text text-anchor="middle" x="1170" y="-99.8" font-family="Times,serif" font-size="14.00" fill="#000000">AuthGuard</text>
</g>
<!-- AuthGuard&#45;&gt;AppModule -->
<g id="edge17" class="edge">
<title>AuthGuard&#45;&gt;AppModule</title>
<path fill="none" stroke="#000000" d="M1170,-122.0225C1170,-139.3734 1170,-163 1170,-163 1170,-163 1647.0481,-163 1647.0481,-163"/>
<polygon fill="#000000" stroke="#000000" points="1647.0481,-166.5001 1657.0481,-163 1647.0481,-159.5001 1647.0481,-166.5001"/>
</g>
<!-- LoginService -->
<g id="node19" class="node">
<title>LoginService</title>
<ellipse fill="#fdb462" stroke="#000000" cx="1034" cy="-104" rx="63.1209" ry="18"/>
<text text-anchor="middle" x="1034" y="-99.8" font-family="Times,serif" font-size="14.00" fill="#000000">LoginService</text>
</g>
<!-- LoginService&#45;&gt;AppModule -->
<g id="edge18" class="edge">
<title>LoginService&#45;&gt;AppModule</title>
<path fill="none" stroke="#000000" d="M1034,-122.2667C1034,-140.5552 1034,-166 1034,-166 1034,-166 1647.1494,-166 1647.1494,-166"/>
<polygon fill="#000000" stroke="#000000" points="1647.1494,-169.5001 1657.1494,-166 1647.1493,-162.5001 1647.1494,-169.5001"/>
</g>
<!-- TodoService -->
<g id="node20" class="node">
<title>TodoService</title>
<ellipse fill="#fdb462" stroke="#000000" cx="893" cy="-104" rx="60.2537" ry="18"/>
<text text-anchor="middle" x="893" y="-99.8" font-family="Times,serif" font-size="14.00" fill="#000000">TodoService</text>
</g>
<!-- TodoService&#45;&gt;AppModule -->
<g id="edge19" class="edge">
<title>TodoService&#45;&gt;AppModule</title>
<path fill="none" stroke="#000000" d="M893,-122.1061C893,-141.3391 893,-169 893,-169 893,-169 1647.0824,-169 1647.0824,-169"/>
<polygon fill="#000000" stroke="#000000" points="1647.0824,-172.5001 1657.0824,-169 1647.0823,-165.5001 1647.0824,-172.5001"/>
</g>
<!-- UsersService -->
<g id="node21" class="node">
<title>UsersService</title>
<ellipse fill="#fdb462" stroke="#000000" cx="753" cy="-104" rx="61.9519" ry="18"/>
<text text-anchor="middle" x="753" y="-99.8" font-family="Times,serif" font-size="14.00" fill="#000000">UsersService</text>
</g>
<!-- UsersService&#45;&gt;AppModule -->
<g id="edge20" class="edge">
<title>UsersService&#45;&gt;AppModule</title>
<path fill="none" stroke="#000000" d="M753,-122.2228C753,-142.3652 753,-172 753,-172 753,-172 1647.1309,-172 1647.1309,-172"/>
<polygon fill="#000000" stroke="#000000" points="1647.131,-175.5001 1657.1309,-172 1647.1309,-168.5001 1647.131,-175.5001"/>
</g>
<!-- UserService -->
<g id="node22" class="node">
<title>UserService</title>
<ellipse fill="#fdb462" stroke="#000000" cx="615" cy="-104" rx="58.4415" ry="18"/>
<text text-anchor="middle" x="615" y="-99.8" font-family="Times,serif" font-size="14.00" fill="#000000">UserService</text>
</g>
<!-- UserService&#45;&gt;AppModule -->
<g id="edge21" class="edge">
<title>UserService&#45;&gt;AppModule</title>
<path fill="none" stroke="#000000" d="M615,-122.2843C615,-143.3211 615,-175 615,-175 615,-175 1647.1701,-175 1647.1701,-175"/>
<polygon fill="#000000" stroke="#000000" points="1647.1702,-178.5001 1657.1701,-175 1647.1701,-171.5001 1647.1702,-178.5001"/>
</g>
<!-- DataService -->
<g id="node23" class="node">
<title>DataService</title>
<ellipse fill="#fdb462" stroke="#000000" cx="481" cy="-104" rx="58.4415" ry="18"/>
<text text-anchor="middle" x="481" y="-99.8" font-family="Times,serif" font-size="14.00" fill="#000000">DataService</text>
</g>
<!-- DataService&#45;&gt;AppModule -->
<g id="edge22" class="edge">
<title>DataService&#45;&gt;AppModule</title>
<path fill="none" stroke="#000000" d="M481,-122.2921C481,-144.2057 481,-178 481,-178 481,-178 1647.0737,-178 1647.0737,-178"/>
<polygon fill="#000000" stroke="#000000" points="1647.0737,-181.5001 1657.0737,-178 1647.0736,-174.5001 1647.0737,-181.5001"/>
</g>
<!-- GroupService -->
<g id="node24" class="node">
<title>GroupService</title>
<ellipse fill="#fdb462" stroke="#000000" cx="340" cy="-104" rx="64.8273" ry="18"/>
<text text-anchor="middle" x="340" y="-99.8" font-family="Times,serif" font-size="14.00" fill="#000000">GroupService</text>
</g>
<!-- GroupService&#45;&gt;AppModule -->
<g id="edge23" class="edge">
<title>GroupService&#45;&gt;AppModule</title>
<path fill="none" stroke="#000000" d="M340,-122.2479C340,-145.0179 340,-181 340,-181 340,-181 1647.2125,-181 1647.2125,-181"/>
<polygon fill="#000000" stroke="#000000" points="1647.2125,-184.5001 1657.2125,-181 1647.2124,-177.5001 1647.2125,-184.5001"/>
</g>
<!-- DTUSocialAuthInterceptor -->
<g id="node25" class="node">
<title>DTUSocialAuthInterceptor</title>
<ellipse fill="#fdb462" stroke="#000000" cx="141" cy="-104" rx="116.8711" ry="18"/>
<text text-anchor="middle" x="141" y="-99.8" font-family="Times,serif" font-size="14.00" fill="#000000">DTUSocialAuthInterceptor</text>
</g>
<!-- DTUSocialAuthInterceptor&#45;&gt;AppModule -->
<g id="edge24" class="edge">
<title>DTUSocialAuthInterceptor&#45;&gt;AppModule</title>
<path fill="none" stroke="#000000" d="M141,-122.1532C141,-145.7566 141,-184 141,-184 141,-184 1647.3273,-184 1647.3273,-184"/>
<polygon fill="#000000" stroke="#000000" points="1647.3273,-187.5001 1657.3273,-184 1647.3272,-180.5001 1647.3273,-187.5001"/>
</g>
</g>
</svg>
